<?xml version="1.0" encoding="UTF-8"?>
<svg id="_图层_1" data-name="图层_1" xmlns="http://www.w3.org/2000/svg" version="1.1" viewBox="0 0 32 32">
  <!-- Generator: Adobe Illustrator 29.7.0, SVG Export Plug-In . SVG Version: 2.1.1 Build 138)  -->
  <defs>
    <style>
      .st0 {
        stroke-width: .25px;
      }

      .st0, .st1 {
        fill: #fff;
      }

      .st0, .st1, .st2 {
        stroke: #fff;
        stroke-miterlimit: 10;
      }

      .st2 {
        fill: none;
        stroke-width: 2px;
      }
    </style>
  </defs>
  <circle class="st2" cx="16" cy="16" r="14.65"/>
  <circle class="st1" cx="17.48" cy="9.04" r="1.99"/>
  <path class="st0" d="M11.75,14.81c-.14-.41,2.03-2.54,4.36-1.95.28.07,1.65.34,2.13,1.4.2.44.41.89.23,1.8-.38,1.95-1.25,3.8-1.45,5.81-.03.35-.07.87.24,1.16.37.34,1.12.29,1.64.06.37-.16.51-.37.61-.3.17.11-.15.77-.56,1.24-.2.23-.93.79-2.37.77-1.85-.01-2.45-.18-3.16-1.04-.67-.81-.88-1.93.24-3.71,1.36-2.15,1.43-3.48,1.16-4.38-.2-.66-1.07-.91-1.22-.97-.98-.4-1.81.3-1.86.13Z"/>
</svg>