<?xml version="1.0" encoding="UTF-8"?>
<svg xmlns="http://www.w3.org/2000/svg" version="1.1" viewBox="0 0 32 32">
  <!-- Generator: Adobe Illustrator 29.7.0, SVG Export Plug-In . SVG Version: 2.1.1 Build 138)  -->
  <defs>
    <style>
      .st0 {
        fill: #fff;
      }

      .st0, .st1 {
        stroke: #fff;
        stroke-miterlimit: 10;
      }

      .st2 {
        fill: #4b4b4b;
      }

      .st1 {
        fill: none;
        stroke-width: 2px;
      }
    </style>
  </defs>
  <g id="_图层_1" data-name="图层_1">
    <circle class="st1" cx="16" cy="16" r="14.65"/>
  </g>
  <g id="_图层_2" data-name="图层_2">
    <path class="st0" d="M9.96,8.46c.31,0,12.73-.07,12.73-.07,0,0,1.01.42,1.5,1.8.4,1.13.15,7.74.04,10.09-.03.55-.21,1.09-.55,1.55-.63.87-1.7,2.23-2.28,2.32-.86.15.3-3.38-1.36-3.38s-10.89-.07-10.89-.07c0,0-1.29,0-1.35-.95s-.06-9.62-.06-9.62c0,0,.18-1.02.86-1.38s1.35-.29,1.35-.29Z"/>
  </g>
  <g id="_图层_3" data-name="图层_3">
    <ellipse class="st2" cx="11.66" cy="14" rx="1.24" ry="1.02"/>
    <ellipse class="st2" cx="16.15" cy="14" rx="1.24" ry="1.02"/>
    <ellipse class="st2" cx="20.37" cy="14" rx="1.24" ry="1.02"/>
  </g>
</svg>